<svg id="svg" version="1.1" xmlns="http://www.w3.org/2000/svg" xmlns:xlink="http://www.w3.org/1999/xlink" width="400" height="400" viewBox="0, 0, 400,400"><g id="svgg"><path id="path0" d="M186.000 57.179 C 185.230 57.350,184.139 57.677,183.576 57.906 C 183.013 58.135,180.916 58.521,178.917 58.764 C 176.918 59.007,174.679 59.458,173.941 59.766 C 173.204 60.074,171.340 60.600,169.800 60.936 C 167.116 61.520,162.461 63.193,161.200 64.026 C 160.870 64.245,160.258 64.536,159.839 64.674 C 159.420 64.812,158.160 65.413,157.039 66.008 C 155.918 66.604,154.577 67.223,154.061 67.385 C 153.544 67.547,152.824 67.943,152.461 68.266 C 151.322 69.277,149.046 70.787,147.900 71.291 C 147.295 71.558,146.800 71.914,146.800 72.083 C 146.800 72.252,146.106 72.828,145.257 73.364 C 144.409 73.899,142.320 75.657,140.616 77.269 C 138.912 78.881,137.266 80.344,136.959 80.520 C 136.651 80.696,136.146 81.326,135.836 81.920 C 135.525 82.514,134.445 83.858,133.436 84.907 C 132.426 85.956,131.600 86.963,131.600 87.145 C 131.600 87.327,131.240 87.802,130.800 88.200 C 130.360 88.598,130.000 89.152,130.000 89.431 C 130.000 89.710,129.571 90.449,129.046 91.073 C 128.521 91.696,127.789 92.835,127.419 93.603 C 126.450 95.617,124.926 98.365,124.470 98.921 C 124.255 99.185,123.862 100.209,123.597 101.198 C 123.333 102.187,122.802 103.627,122.417 104.398 C 122.033 105.169,121.498 106.700,121.229 107.800 C 120.960 108.900,120.506 110.070,120.221 110.400 C 119.935 110.730,119.499 112.405,119.250 114.121 C 119.002 115.838,118.547 117.729,118.239 118.324 C 116.069 122.521,116.062 277.110,118.232 281.873 C 118.551 282.573,119.017 284.598,119.268 286.373 C 119.519 288.148,119.855 289.600,120.014 289.600 C 120.379 289.600,121.070 291.376,121.414 293.200 C 121.560 293.970,121.919 294.980,122.212 295.444 C 122.505 295.908,123.049 297.348,123.421 298.644 C 123.792 299.940,124.269 301.215,124.480 301.479 C 124.940 302.054,126.490 304.862,127.417 306.800 C 127.785 307.570,128.313 308.331,128.591 308.491 C 128.868 308.650,129.328 309.370,129.612 310.091 C 129.897 310.811,130.970 312.390,131.997 313.600 C 133.024 314.810,134.390 316.524,135.032 317.409 C 136.391 319.280,144.165 326.800,144.741 326.800 C 145.125 326.800,146.433 327.794,148.200 329.430 C 148.693 329.887,149.647 330.488,150.319 330.767 C 150.992 331.045,151.853 331.617,152.233 332.037 C 152.613 332.456,153.101 332.800,153.317 332.800 C 153.923 332.800,160.309 335.929,160.572 336.355 C 160.700 336.561,161.518 336.851,162.390 336.998 C 163.263 337.146,164.397 337.597,164.911 338.002 C 165.425 338.406,167.006 338.940,168.423 339.189 C 169.840 339.437,171.990 339.974,173.200 340.382 C 174.410 340.790,176.480 341.245,177.800 341.394 C 179.120 341.543,181.280 342.046,182.600 342.513 C 186.326 343.830,213.535 343.850,217.800 342.539 C 219.340 342.066,221.680 341.555,223.000 341.403 C 224.320 341.251,226.379 340.785,227.574 340.367 C 228.770 339.950,230.800 339.418,232.085 339.185 C 233.369 338.952,235.001 338.427,235.710 338.019 C 236.420 337.611,237.573 337.159,238.272 337.013 C 238.972 336.868,239.752 336.499,240.004 336.195 C 240.257 335.890,241.125 335.428,241.932 335.168 C 242.739 334.908,243.650 334.496,243.956 334.253 C 244.262 334.009,245.432 333.348,246.556 332.784 C 249.643 331.235,251.192 330.296,252.350 329.272 C 252.928 328.762,253.670 328.110,254.000 327.824 C 254.330 327.538,255.152 327.023,255.828 326.679 C 256.503 326.336,258.303 324.781,259.828 323.225 C 261.352 321.669,262.915 320.294,263.300 320.171 C 263.685 320.047,264.000 319.759,264.000 319.531 C 264.000 319.066,265.623 316.910,268.487 313.569 C 269.539 312.342,270.400 311.166,270.400 310.955 C 270.400 310.503,272.907 306.463,273.724 305.600 C 274.036 305.270,274.505 304.339,274.766 303.532 C 275.027 302.725,275.488 301.859,275.789 301.609 C 276.091 301.359,276.459 300.399,276.607 299.477 C 276.755 298.555,277.199 297.239,277.594 296.552 C 277.988 295.866,278.518 294.338,278.772 293.158 C 279.025 291.977,279.489 290.618,279.803 290.139 C 280.117 289.660,280.567 288.038,280.804 286.534 C 281.040 285.030,281.576 282.720,281.994 281.400 C 283.363 277.075,283.861 259.921,282.640 259.106 C 282.398 258.944,273.791 258.809,263.514 258.806 C 241.816 258.799,244.224 258.113,243.877 264.400 C 243.750 266.710,243.393 269.320,243.084 270.200 C 242.774 271.080,242.411 273.261,242.277 275.046 C 242.143 276.831,241.743 279.081,241.388 280.046 C 241.033 281.011,240.550 282.520,240.315 283.400 C 240.080 284.280,239.575 285.360,239.193 285.800 C 238.811 286.240,238.290 287.253,238.034 288.052 C 237.779 288.850,237.217 289.823,236.785 290.214 C 236.353 290.604,236.000 291.137,236.000 291.396 C 236.000 292.804,228.656 299.897,226.500 300.572 C 226.004 300.727,225.421 301.187,225.203 301.595 C 224.985 302.002,224.243 302.459,223.554 302.610 C 222.865 302.761,221.722 303.227,221.015 303.644 C 220.307 304.062,218.668 304.599,217.372 304.839 C 216.076 305.079,214.493 305.545,213.853 305.876 C 211.154 307.272,190.073 307.286,187.382 305.894 C 186.713 305.548,185.004 305.056,183.583 304.800 C 182.162 304.544,180.439 303.989,179.753 303.567 C 179.067 303.145,178.237 302.800,177.908 302.800 C 177.579 302.800,176.631 302.260,175.800 301.600 C 174.969 300.940,174.077 300.400,173.817 300.400 C 173.557 300.400,172.968 299.995,172.508 299.500 C 172.049 299.005,170.816 297.971,169.769 297.202 C 167.629 295.629,164.000 291.464,164.000 290.579 C 164.000 290.261,163.810 290.000,163.578 290.000 C 163.345 290.000,162.780 289.145,162.322 288.100 C 161.864 287.055,161.244 286.056,160.945 285.880 C 160.645 285.704,160.396 285.344,160.391 285.080 C 160.385 284.816,159.932 283.520,159.383 282.200 C 158.725 280.616,158.242 278.371,157.963 275.600 C 157.731 273.290,157.284 270.603,156.970 269.629 C 156.118 266.981,156.115 133.034,156.967 130.371 C 157.279 129.397,157.739 126.645,157.990 124.256 C 158.283 121.462,158.723 119.395,159.223 118.462 C 159.650 117.664,160.000 116.708,160.000 116.337 C 160.000 115.965,160.409 115.153,160.909 114.531 C 161.409 113.909,162.138 112.770,162.529 112.000 C 162.920 111.230,163.511 110.104,163.843 109.498 C 164.603 108.107,170.574 102.104,172.415 100.878 C 175.941 98.532,178.217 97.200,178.701 97.200 C 178.991 97.200,179.659 96.918,180.186 96.573 C 180.713 96.227,182.551 95.698,184.272 95.397 C 185.992 95.095,188.120 94.525,189.000 94.130 C 191.641 92.946,209.792 93.056,212.600 94.273 C 213.700 94.751,215.500 95.257,216.600 95.398 C 217.700 95.539,219.320 95.979,220.200 96.375 C 221.080 96.771,222.372 97.315,223.071 97.584 C 223.770 97.853,224.653 98.417,225.033 98.837 C 225.413 99.256,225.897 99.600,226.109 99.600 C 226.321 99.600,227.086 100.095,227.809 100.700 C 228.532 101.305,229.879 102.340,230.803 103.000 C 232.378 104.125,236.000 108.406,236.000 109.142 C 236.000 109.326,236.350 109.793,236.777 110.179 C 237.205 110.566,237.666 111.390,237.802 112.010 C 237.938 112.630,238.466 113.586,238.974 114.134 C 239.482 114.682,240.024 115.822,240.179 116.666 C 240.333 117.510,240.706 118.584,241.008 119.053 C 241.310 119.522,241.753 121.502,241.992 123.453 C 242.231 125.404,242.716 128.347,243.070 129.994 C 243.423 131.640,243.822 134.790,243.956 136.994 L 244.200 141.000 263.400 141.096 C 273.960 141.149,282.838 141.040,283.129 140.854 C 284.066 140.256,283.003 121.872,281.797 117.800 C 281.275 116.040,280.740 113.768,280.607 112.752 C 280.475 111.735,280.014 110.212,279.583 109.367 C 279.152 108.522,278.800 107.498,278.800 107.091 C 278.800 106.684,278.363 105.417,277.828 104.275 C 277.294 103.134,276.734 101.480,276.584 100.600 C 276.434 99.720,276.098 98.820,275.837 98.600 C 275.576 98.380,275.116 97.570,274.815 96.800 C 274.515 96.030,273.989 95.073,273.648 94.673 C 272.834 93.720,271.374 91.334,270.599 89.691 C 269.968 88.353,269.833 88.176,267.329 85.400 C 266.535 84.520,265.416 83.162,264.843 82.383 C 263.469 80.517,257.085 74.417,255.440 73.400 C 254.728 72.960,253.381 71.990,252.446 71.245 C 250.818 69.948,249.303 69.031,245.800 67.225 C 244.920 66.772,243.851 66.130,243.424 65.800 C 242.996 65.470,242.347 65.200,241.979 65.200 C 241.612 65.200,240.649 64.750,239.838 64.200 C 239.028 63.650,238.039 63.200,237.642 63.200 C 237.244 63.200,236.127 62.781,235.160 62.268 C 234.192 61.756,232.230 61.109,230.800 60.830 C 229.370 60.552,227.570 60.059,226.800 59.735 C 226.030 59.411,223.785 58.964,221.810 58.741 C 219.836 58.518,217.586 58.039,216.810 57.677 C 215.263 56.954,188.933 56.529,186.000 57.179 " stroke="none" fill="#050506" fill-rule="evenodd"></path><path id="path1" d="M24.400 0.579 C 24.400 0.996,23.811 1.192,22.300 1.279 C 20.471 1.384,20.184 1.516,20.072 2.300 C 19.980 2.951,19.676 3.200,18.972 3.200 C 18.202 3.200,18.000 3.408,18.000 4.200 C 18.000 5.088,17.832 5.201,16.500 5.206 C 14.657 5.214,13.980 5.611,13.895 6.736 C 13.845 7.399,13.571 7.600,12.715 7.600 C 11.792 7.600,11.600 7.773,11.600 8.600 C 11.600 9.400,11.400 9.600,10.600 9.600 C 9.800 9.600,9.600 9.800,9.600 10.600 C 9.600 11.400,9.400 11.600,8.600 11.600 C 7.773 11.600,7.600 11.792,7.600 12.715 C 7.600 13.571,7.399 13.845,6.736 13.895 C 5.611 13.980,5.214 14.657,5.206 16.500 C 5.201 17.832,5.088 18.000,4.200 18.000 C 3.408 18.000,3.200 18.202,3.200 18.972 C 3.200 19.676,2.951 19.980,2.300 20.072 C 1.516 20.184,1.384 20.471,1.279 22.300 C 1.192 23.811,0.996 24.400,0.579 24.400 C 0.075 24.400,0.000 47.020,0.000 200.200 C 0.000 356.200,0.068 376.000,0.600 376.000 C 1.045 376.000,1.200 376.468,1.200 377.810 C 1.200 379.357,1.341 379.673,2.169 379.988 C 2.731 380.202,3.194 380.745,3.269 381.278 C 3.354 381.878,3.714 382.245,4.300 382.328 C 5.005 382.428,5.200 382.716,5.200 383.654 C 5.200 385.274,5.862 386.400,6.814 386.400 C 7.386 386.400,7.600 386.673,7.600 387.400 C 7.600 388.193,7.802 388.400,8.573 388.400 C 9.338 388.400,9.574 388.636,9.673 389.500 C 9.763 390.277,10.057 390.637,10.675 390.725 C 11.221 390.802,11.598 391.179,11.675 391.725 C 11.752 392.265,12.130 392.647,12.662 392.723 C 13.187 392.798,13.621 393.228,13.770 393.823 C 13.989 394.695,14.228 394.800,16.008 394.800 C 17.866 394.800,18.000 394.867,18.000 395.800 C 18.000 396.592,18.202 396.800,18.972 396.800 C 19.676 396.800,19.980 397.049,20.072 397.700 C 20.184 398.484,20.471 398.616,22.300 398.721 C 23.811 398.808,24.400 399.004,24.400 399.421 C 24.400 399.925,47.020 400.000,200.200 400.000 C 356.200 400.000,376.000 399.932,376.000 399.400 C 376.000 398.955,376.468 398.800,377.810 398.800 C 379.357 398.800,379.673 398.659,379.988 397.831 C 380.202 397.269,380.745 396.806,381.278 396.731 C 381.878 396.646,382.245 396.286,382.328 395.700 C 382.436 394.937,382.700 394.800,384.068 394.800 C 385.799 394.800,388.400 392.783,388.400 391.440 C 388.400 391.088,388.724 390.800,389.120 390.800 C 389.516 390.800,390.056 390.584,390.320 390.320 C 390.584 390.056,390.800 389.516,390.800 389.120 C 390.800 388.724,391.088 388.400,391.440 388.400 C 392.783 388.400,394.800 385.799,394.800 384.068 C 394.800 382.700,394.937 382.436,395.700 382.328 C 396.286 382.245,396.646 381.878,396.731 381.278 C 396.806 380.745,397.269 380.202,397.831 379.988 C 398.659 379.673,398.800 379.357,398.800 377.810 C 398.800 376.468,398.955 376.000,399.400 376.000 C 399.932 376.000,400.000 356.200,400.000 200.200 C 400.000 47.020,399.925 24.400,399.421 24.400 C 399.004 24.400,398.808 23.811,398.721 22.300 C 398.616 20.471,398.484 20.184,397.700 20.072 C 397.049 19.980,396.800 19.676,396.800 18.972 C 396.800 18.202,396.592 18.000,395.800 18.000 C 394.867 18.000,394.800 17.866,394.800 16.008 C 394.800 14.228,394.695 13.989,393.823 13.770 C 393.228 13.621,392.798 13.187,392.723 12.662 C 392.647 12.130,392.265 11.752,391.725 11.675 C 391.179 11.598,390.802 11.221,390.725 10.675 C 390.637 10.057,390.277 9.763,389.500 9.673 C 388.636 9.574,388.400 9.338,388.400 8.573 C 388.400 7.802,388.193 7.600,387.400 7.600 C 386.673 7.600,386.400 7.386,386.400 6.814 C 386.400 5.862,385.274 5.200,383.654 5.200 C 382.716 5.200,382.428 5.005,382.328 4.300 C 382.245 3.714,381.878 3.354,381.278 3.269 C 380.745 3.194,380.202 2.731,379.988 2.169 C 379.673 1.341,379.357 1.200,377.810 1.200 C 376.468 1.200,376.000 1.045,376.000 0.600 C 376.000 0.068,356.200 0.000,200.200 0.000 C 47.020 0.000,24.400 0.075,24.400 0.579 M205.680 54.963 C 208.166 55.273,212.247 55.637,214.749 55.773 C 217.745 55.936,219.931 56.274,221.149 56.763 C 222.167 57.171,224.793 57.711,226.985 57.962 C 229.177 58.214,231.356 58.672,231.827 58.981 C 232.298 59.289,233.345 59.666,234.155 59.818 C 234.965 59.970,236.259 60.523,237.031 61.047 C 237.804 61.571,238.762 62.000,239.162 62.000 C 239.561 62.000,240.551 62.450,241.362 63.000 C 242.172 63.550,243.252 64.000,243.762 64.000 C 244.271 64.000,245.351 64.450,246.162 65.000 C 246.972 65.550,247.769 66.000,247.933 66.000 C 248.096 66.000,248.853 66.533,249.615 67.184 C 250.377 67.835,251.215 68.375,251.477 68.384 C 251.740 68.393,252.190 68.734,252.477 69.143 C 252.765 69.551,253.450 70.025,254.000 70.197 C 254.550 70.368,255.630 71.037,256.400 71.683 C 258.476 73.426,261.984 76.528,262.526 77.101 C 264.417 79.099,267.501 82.455,267.989 83.045 C 269.798 85.232,271.600 87.842,271.600 88.275 C 271.600 88.548,271.946 88.957,272.368 89.183 C 272.790 89.409,273.340 90.211,273.588 90.965 C 273.837 91.719,274.284 92.538,274.581 92.784 C 274.878 93.031,275.241 93.708,275.387 94.290 C 275.533 94.871,276.090 95.867,276.626 96.504 C 277.162 97.140,277.600 97.874,277.600 98.134 C 277.600 98.394,278.029 99.415,278.553 100.403 C 279.078 101.391,279.728 103.273,279.999 104.584 C 280.270 105.895,280.726 107.335,281.014 107.784 C 281.301 108.233,281.666 109.678,281.826 110.995 C 281.985 112.311,282.442 113.841,282.842 114.395 C 283.342 115.087,283.711 116.767,284.029 119.793 C 284.283 122.210,284.667 124.640,284.883 125.193 C 285.098 125.747,285.468 129.495,285.705 133.521 C 286.305 143.726,288.890 142.572,265.089 142.720 C 240.071 142.876,241.607 143.245,241.590 137.084 C 241.575 131.940,240.950 126.058,240.237 124.350 C 239.906 123.558,239.458 121.808,239.241 120.461 C 238.773 117.558,236.175 112.093,233.720 108.849 C 232.481 107.213,228.013 102.800,227.594 102.800 C 227.374 102.800,226.803 102.350,226.325 101.800 C 225.847 101.250,225.243 100.800,224.984 100.800 C 224.724 100.800,223.902 100.392,223.156 99.894 C 222.410 99.396,220.720 98.655,219.400 98.249 C 218.080 97.843,216.819 97.365,216.598 97.188 C 216.377 97.010,214.673 96.656,212.811 96.402 C 210.949 96.147,208.790 95.657,208.013 95.313 C 205.864 94.363,195.695 94.376,193.025 95.333 C 191.939 95.723,189.626 96.220,187.884 96.438 C 186.143 96.657,184.329 97.090,183.854 97.401 C 183.379 97.713,182.061 98.167,180.925 98.410 C 179.790 98.654,178.460 99.201,177.969 99.627 C 177.479 100.052,176.846 100.400,176.563 100.400 C 176.281 100.400,175.458 100.940,174.736 101.600 C 174.013 102.260,173.223 102.800,172.981 102.800 C 172.738 102.800,172.117 103.250,171.600 103.800 C 171.083 104.350,170.422 104.800,170.130 104.800 C 169.839 104.800,169.600 105.030,169.600 105.311 C 169.600 105.592,169.105 106.303,168.500 106.892 C 166.720 108.625,164.628 111.366,163.565 113.360 C 162.151 116.013,161.147 118.620,160.776 120.600 C 160.529 121.920,160.075 123.395,159.768 123.879 C 157.764 127.032,157.729 272.334,159.732 276.292 C 160.040 276.901,160.509 278.390,160.774 279.600 C 161.205 281.570,162.647 285.190,163.641 286.800 C 165.979 290.587,167.203 292.232,169.000 294.008 C 171.804 296.779,172.278 297.200,172.589 297.200 C 172.757 297.200,173.490 297.695,174.218 298.300 C 176.455 300.158,178.502 301.270,180.777 301.863 C 181.974 302.175,183.148 302.591,183.385 302.787 C 183.621 302.984,185.072 303.360,186.607 303.624 C 188.143 303.888,190.262 304.441,191.315 304.852 C 193.945 305.879,207.498 305.964,209.400 304.965 C 210.060 304.618,211.984 304.090,213.675 303.790 C 215.367 303.491,217.257 302.987,217.875 302.671 C 218.494 302.355,219.630 301.966,220.400 301.808 C 221.170 301.649,222.626 300.997,223.635 300.360 C 224.644 299.722,225.608 299.200,225.777 299.200 C 225.947 299.200,226.439 298.750,226.871 298.200 C 227.304 297.650,227.823 297.200,228.024 297.200 C 228.438 297.200,232.638 293.025,233.695 291.562 C 236.720 287.376,238.717 283.189,239.241 279.939 C 239.458 278.592,239.906 276.842,240.237 276.050 C 240.921 274.413,241.572 268.542,241.595 263.800 C 241.628 257.129,239.946 257.600,263.720 257.600 C 284.399 257.600,285.405 257.686,285.856 259.483 C 286.201 260.855,285.368 273.940,284.850 275.282 C 284.621 275.877,284.245 278.197,284.015 280.437 C 283.743 283.094,283.336 284.943,282.846 285.755 C 282.432 286.440,281.973 287.900,281.825 289.000 C 281.676 290.100,281.224 291.900,280.819 293.000 C 280.415 294.100,279.874 295.898,279.618 296.995 C 279.362 298.092,278.907 299.262,278.607 299.595 C 278.308 299.928,277.931 300.740,277.770 301.400 C 277.610 302.060,277.071 303.091,276.573 303.690 C 276.075 304.290,275.548 305.325,275.402 305.990 C 275.256 306.656,275.002 307.200,274.837 307.200 C 274.672 307.200,274.115 308.100,273.600 309.200 C 273.085 310.300,272.526 311.200,272.359 311.200 C 272.191 311.200,271.941 311.556,271.803 311.991 C 271.546 312.799,269.504 315.528,268.024 317.042 C 267.571 317.505,267.200 318.019,267.200 318.184 C 267.200 318.625,260.155 325.600,259.709 325.600 C 259.500 325.600,259.123 326.050,258.873 326.600 C 258.622 327.150,258.171 327.600,257.871 327.600 C 257.570 327.600,256.981 327.979,256.562 328.443 C 256.143 328.906,255.125 329.630,254.300 330.051 C 253.475 330.472,252.800 330.993,252.800 331.208 C 252.800 331.424,252.536 331.600,252.214 331.600 C 251.891 331.600,251.075 332.140,250.400 332.800 C 249.725 333.460,248.944 334.000,248.664 334.000 C 248.384 334.000,247.576 334.428,246.867 334.951 C 246.158 335.473,244.883 336.012,244.033 336.148 C 243.183 336.284,242.391 336.645,242.274 336.950 C 242.157 337.256,241.134 337.728,240.000 338.000 C 238.866 338.272,237.844 338.742,237.728 339.044 C 237.612 339.346,236.771 339.795,235.859 340.042 C 234.946 340.289,233.390 340.814,232.400 341.209 C 231.410 341.603,229.520 342.053,228.200 342.209 C 226.880 342.364,224.810 342.838,223.600 343.262 C 222.244 343.736,219.406 344.176,216.200 344.407 C 213.340 344.613,210.116 345.056,209.036 345.391 C 206.252 346.255,194.680 346.241,191.384 345.370 C 190.073 345.023,186.897 344.589,184.327 344.403 C 181.738 344.217,178.528 343.714,177.127 343.275 C 175.737 342.839,173.288 342.284,171.684 342.040 C 170.080 341.796,168.370 341.348,167.884 341.043 C 167.398 340.739,166.343 340.375,165.541 340.234 C 164.738 340.094,163.652 339.641,163.127 339.228 C 162.601 338.815,161.375 338.262,160.400 338.000 C 159.425 337.738,158.193 337.180,157.660 336.761 C 157.128 336.343,156.335 336.000,155.898 336.000 C 155.072 336.000,152.618 334.595,150.133 332.700 C 149.339 332.095,148.454 331.600,148.165 331.600 C 147.876 331.600,147.496 331.354,147.320 331.054 C 147.144 330.754,146.460 330.232,145.799 329.895 C 145.139 329.558,144.256 328.903,143.837 328.441 C 143.418 327.978,142.924 327.600,142.737 327.600 C 142.257 327.600,133.227 318.402,131.883 316.544 C 129.265 312.925,128.400 311.744,127.678 310.800 C 127.257 310.250,126.776 309.350,126.610 308.800 C 126.444 308.250,125.989 307.440,125.600 307.000 C 125.211 306.560,124.757 305.750,124.591 305.200 C 124.426 304.650,123.865 303.691,123.345 303.069 C 122.825 302.447,122.400 301.692,122.400 301.390 C 122.400 301.089,121.968 300.029,121.440 299.036 C 120.911 298.043,120.352 296.278,120.196 295.115 C 120.041 293.952,119.659 292.711,119.347 292.358 C 119.035 292.004,118.583 290.564,118.341 289.158 C 118.100 287.751,117.633 286.292,117.304 285.916 C 116.964 285.528,116.483 283.541,116.190 281.316 C 115.907 279.162,115.433 276.500,115.137 275.400 C 114.229 272.020,114.353 127.013,115.267 124.000 C 115.634 122.790,116.047 120.630,116.184 119.200 C 116.464 116.289,117.089 114.000,117.602 114.000 C 117.789 114.000,118.064 112.965,118.214 111.700 C 118.363 110.435,118.778 108.950,119.136 108.400 C 119.494 107.850,120.000 106.170,120.261 104.668 C 120.521 103.165,120.994 101.635,121.311 101.268 C 121.627 100.900,122.067 100.060,122.288 99.400 C 122.508 98.739,123.164 97.499,123.744 96.644 C 124.325 95.788,124.800 94.871,124.800 94.606 C 124.800 94.341,125.139 93.817,125.554 93.442 C 125.969 93.066,126.411 92.246,126.536 91.620 C 126.661 90.993,127.222 89.986,127.782 89.382 C 128.342 88.777,128.800 88.034,128.800 87.729 C 128.800 87.424,129.062 87.074,129.382 86.952 C 129.701 86.829,130.308 86.144,130.730 85.430 C 131.944 83.370,132.702 82.518,137.858 77.412 C 142.770 72.547,143.632 71.839,147.600 69.410 C 148.810 68.670,150.250 67.717,150.800 67.293 C 151.350 66.869,152.246 66.286,152.792 65.998 C 153.337 65.710,154.018 65.239,154.305 64.953 C 154.591 64.666,155.495 64.309,156.313 64.160 C 157.131 64.011,158.252 63.573,158.804 63.186 C 159.356 62.799,160.616 62.267,161.604 62.002 C 162.592 61.738,163.698 61.205,164.062 60.818 C 164.427 60.431,165.507 59.989,166.462 59.837 C 167.418 59.684,168.595 59.301,169.077 58.985 C 169.560 58.670,171.720 58.212,173.877 57.967 C 176.035 57.723,178.624 57.189,179.631 56.780 C 180.915 56.259,183.428 55.900,188.031 55.581 C 191.644 55.330,195.590 54.987,196.800 54.819 C 200.180 54.348,200.830 54.359,205.680 54.963 " stroke="none" fill="#aba3fb" fill-rule="evenodd"></path><path id="path2" d="M198.700 55.893 C 199.635 55.977,201.165 55.977,202.100 55.893 C 203.035 55.809,202.270 55.740,200.400 55.740 C 198.530 55.740,197.765 55.809,198.700 55.893 M189.507 56.290 C 190.226 56.379,191.306 56.377,191.907 56.286 C 192.508 56.195,191.920 56.122,190.600 56.124 C 189.280 56.126,188.788 56.201,189.507 56.290 M209.300 56.287 C 209.905 56.378,210.895 56.378,211.500 56.287 C 212.105 56.195,211.610 56.120,210.400 56.120 C 209.190 56.120,208.695 56.195,209.300 56.287 M228.200 59.200 C 228.640 59.389,229.270 59.544,229.600 59.544 C 229.978 59.544,229.904 59.417,229.400 59.200 C 228.960 59.011,228.330 58.856,228.000 58.856 C 227.622 58.856,227.696 58.983,228.200 59.200 M243.633 64.940 C 244.277 65.481,248.804 67.930,248.625 67.640 C 248.378 67.242,244.179 64.800,243.739 64.800 C 243.589 64.800,243.542 64.863,243.633 64.940 M142.175 74.500 L 141.000 75.800 142.300 74.625 C 143.512 73.530,143.784 73.200,143.475 73.200 C 143.406 73.200,142.821 73.785,142.175 74.500 M261.200 77.400 C 262.395 78.610,263.463 79.600,263.573 79.600 C 263.683 79.600,262.795 78.610,261.600 77.400 C 260.405 76.190,259.337 75.200,259.227 75.200 C 259.117 75.200,260.005 76.190,261.200 77.400 M138.386 77.900 L 136.200 80.200 138.500 78.014 C 140.637 75.982,140.983 75.600,140.686 75.600 C 140.624 75.600,139.589 76.635,138.386 77.900 M270.800 88.689 C 270.800 88.921,271.171 89.536,271.624 90.056 L 272.447 91.000 271.745 89.800 C 270.820 88.221,270.800 88.197,270.800 88.689 M199.507 93.890 C 200.226 93.979,201.306 93.977,201.907 93.886 C 202.508 93.795,201.920 93.722,200.600 93.724 C 199.280 93.726,198.788 93.801,199.507 93.890 M173.722 101.029 L 172.600 102.058 173.900 101.154 C 174.615 100.657,175.200 100.193,175.200 100.125 C 175.200 99.809,174.758 100.080,173.722 101.029 M230.800 104.125 C 230.800 104.194,231.385 104.779,232.100 105.425 L 233.400 106.600 232.225 105.300 C 231.130 104.088,230.800 103.816,230.800 104.125 M283.301 121.400 C 283.305 122.280,283.387 122.593,283.483 122.095 C 283.579 121.598,283.575 120.878,283.475 120.495 C 283.375 120.113,283.296 120.520,283.301 121.400 M116.501 123.000 C 116.505 123.880,116.587 124.193,116.683 123.695 C 116.779 123.198,116.775 122.478,116.675 122.095 C 116.575 121.713,116.496 122.120,116.501 123.000 M283.701 126.200 C 283.705 127.080,283.787 127.393,283.883 126.895 C 283.979 126.398,283.975 125.678,283.875 125.295 C 283.775 124.913,283.696 125.320,283.701 126.200 M116.109 127.200 C 116.109 128.190,116.187 128.595,116.282 128.100 C 116.378 127.605,116.378 126.795,116.282 126.300 C 116.187 125.805,116.109 126.210,116.109 127.200 M241.693 128.000 C 241.693 128.770,241.775 129.085,241.876 128.700 C 241.976 128.315,241.976 127.685,241.876 127.300 C 241.775 126.915,241.693 127.230,241.693 128.000 M284.114 130.600 C 284.117 131.700,284.195 132.103,284.287 131.495 C 284.379 130.886,284.377 129.986,284.282 129.495 C 284.187 129.003,284.111 129.500,284.114 130.600 M115.731 132.200 C 115.733 133.740,115.805 134.321,115.892 133.491 C 115.979 132.661,115.977 131.401,115.889 130.691 C 115.800 129.981,115.729 130.660,115.731 132.200 M242.093 131.600 C 242.093 132.370,242.175 132.685,242.276 132.300 C 242.376 131.915,242.376 131.285,242.276 130.900 C 242.175 130.515,242.093 130.830,242.093 131.600 M157.693 132.400 C 157.693 133.170,157.775 133.485,157.876 133.100 C 157.976 132.715,157.976 132.085,157.876 131.700 C 157.775 131.315,157.693 131.630,157.693 132.400 M284.483 137.067 C 284.426 139.880,284.246 141.196,283.900 141.335 C 283.508 141.493,283.511 141.544,283.913 141.568 C 284.712 141.618,284.842 140.823,284.699 136.770 L 284.566 133.000 284.483 137.067 M157.395 200.200 C 157.395 236.500,157.442 251.291,157.500 233.068 C 157.558 214.846,157.558 185.146,157.500 167.068 C 157.442 148.991,157.395 163.900,157.395 200.200 M242.924 137.800 C 242.926 139.120,243.001 139.612,243.090 138.893 C 243.179 138.174,243.177 137.094,243.086 136.493 C 242.995 135.892,242.922 136.480,242.924 137.800 M115.395 200.000 C 115.395 235.090,115.442 249.445,115.500 231.900 C 115.558 214.355,115.558 185.645,115.500 168.100 C 115.442 150.555,115.395 164.910,115.395 200.000 M284.398 263.118 L 284.595 267.400 284.713 263.435 C 284.778 261.255,284.689 259.328,284.515 259.154 C 284.342 258.979,284.289 260.763,284.398 263.118 M242.920 262.800 C 242.920 264.010,242.995 264.505,243.087 263.900 C 243.178 263.295,243.178 262.305,243.087 261.700 C 242.995 261.095,242.920 261.590,242.920 262.800 M115.734 268.000 C 115.734 269.650,115.805 270.325,115.891 269.500 C 115.978 268.675,115.978 267.325,115.891 266.500 C 115.805 265.675,115.734 266.350,115.734 268.000 M157.693 267.600 C 157.693 268.370,157.775 268.685,157.876 268.300 C 157.976 267.915,157.976 267.285,157.876 266.900 C 157.775 266.515,157.693 266.830,157.693 267.600 M284.114 269.800 C 284.117 270.900,284.195 271.303,284.287 270.695 C 284.379 270.086,284.377 269.186,284.282 268.695 C 284.187 268.203,284.111 268.700,284.114 269.800 M241.693 272.400 C 241.693 273.170,241.775 273.485,241.876 273.100 C 241.976 272.715,241.976 272.085,241.876 271.700 C 241.775 271.315,241.693 271.630,241.693 272.400 M116.109 273.200 C 116.109 274.190,116.187 274.595,116.282 274.100 C 116.378 273.605,116.378 272.795,116.282 272.300 C 116.187 271.805,116.109 272.210,116.109 273.200 M283.701 274.200 C 283.705 275.080,283.787 275.393,283.883 274.895 C 283.979 274.398,283.975 273.678,283.875 273.295 C 283.775 272.913,283.696 273.320,283.701 274.200 M116.493 277.200 C 116.493 277.970,116.575 278.285,116.676 277.900 C 116.776 277.515,116.776 276.885,116.676 276.500 C 116.575 276.115,116.493 276.430,116.493 277.200 M283.293 278.800 C 283.293 279.570,283.375 279.885,283.476 279.500 C 283.576 279.115,283.576 278.485,283.476 278.100 C 283.375 277.715,283.293 278.030,283.293 278.800 M234.400 292.000 C 233.930 292.660,233.636 293.200,233.746 293.200 C 233.856 293.200,234.330 292.660,234.800 292.000 C 235.270 291.340,235.564 290.800,235.454 290.800 C 235.344 290.800,234.870 291.340,234.400 292.000 M168.400 295.000 C 169.595 296.210,170.663 297.200,170.773 297.200 C 170.883 297.200,169.995 296.210,168.800 295.000 C 167.605 293.790,166.537 292.800,166.427 292.800 C 166.317 292.800,167.205 293.790,168.400 295.000 M231.287 295.900 C 230.330 296.835,230.314 296.881,231.181 296.206 C 232.888 294.876,232.969 294.800,232.686 294.800 C 232.536 294.800,231.906 295.295,231.287 295.900 M121.234 296.200 C 121.234 296.420,121.578 297.230,122.000 298.000 C 122.422 298.770,122.766 299.220,122.766 299.000 C 122.766 298.780,122.422 297.970,122.000 297.200 C 121.578 296.430,121.234 295.980,121.234 296.200 M278.065 297.417 C 277.395 298.888,277.523 299.202,278.247 297.865 C 278.586 297.240,278.788 296.654,278.696 296.563 C 278.605 296.471,278.321 296.856,278.065 297.417 M193.305 306.287 C 193.914 306.379,194.814 306.377,195.305 306.282 C 195.797 306.187,195.300 306.111,194.200 306.114 C 193.100 306.117,192.697 306.195,193.305 306.287 M205.900 306.282 C 206.395 306.378,207.205 306.378,207.700 306.282 C 208.195 306.187,207.790 306.109,206.800 306.109 C 205.810 306.109,205.405 306.187,205.900 306.282 M127.200 308.128 C 127.200 308.301,127.650 309.105,128.200 309.914 C 128.750 310.723,129.200 311.244,129.200 311.072 C 129.200 310.899,128.750 310.095,128.200 309.286 C 127.650 308.477,127.200 307.956,127.200 308.128 M133.200 316.800 C 134.121 317.900,134.964 318.800,135.074 318.800 C 135.184 318.800,134.521 317.900,133.600 316.800 C 132.679 315.700,131.836 314.800,131.726 314.800 C 131.616 314.800,132.279 315.700,133.200 316.800 M267.751 315.700 C 266.570 317.048,265.880 318.000,266.084 318.000 C 266.184 318.000,266.845 317.280,267.552 316.400 C 268.925 314.692,269.064 314.201,267.751 315.700 M138.400 322.600 C 139.595 323.810,140.663 324.800,140.773 324.800 C 140.883 324.800,139.995 323.810,138.800 322.600 C 137.605 321.390,136.537 320.400,136.427 320.400 C 136.317 320.400,137.205 321.390,138.400 322.600 M262.175 322.100 L 261.000 323.400 262.300 322.225 C 263.015 321.579,263.600 320.994,263.600 320.925 C 263.600 320.616,263.270 320.888,262.175 322.100 M248.441 332.634 C 247.693 333.165,247.278 333.600,247.519 333.600 C 247.759 333.600,248.460 333.156,249.078 332.613 C 250.491 331.369,250.208 331.379,248.441 332.634 M169.600 340.600 C 171.426 341.303,172.145 341.293,170.600 340.586 C 169.940 340.283,169.130 340.042,168.800 340.048 C 168.470 340.055,168.830 340.303,169.600 340.600 M185.105 343.883 C 185.602 343.979,186.322 343.975,186.705 343.875 C 187.087 343.775,186.680 343.696,185.800 343.701 C 184.920 343.705,184.607 343.787,185.105 343.883 M213.700 343.876 C 214.085 343.976,214.715 343.976,215.100 343.876 C 215.485 343.775,215.170 343.693,214.400 343.693 C 213.630 343.693,213.315 343.775,213.700 343.876 M190.500 344.276 C 190.885 344.376,191.515 344.376,191.900 344.276 C 192.285 344.175,191.970 344.093,191.200 344.093 C 190.430 344.093,190.115 344.175,190.500 344.276 M197.320 344.698 C 199.255 344.772,202.315 344.771,204.120 344.697 C 205.924 344.623,204.340 344.563,200.600 344.564 C 196.860 344.564,195.384 344.625,197.320 344.698 " stroke="none" fill="#544e7e" fill-rule="evenodd"></path><path id="path3" d="M196.800 54.819 C 195.590 54.987,191.644 55.330,188.031 55.581 C 183.428 55.900,180.915 56.259,179.631 56.780 C 178.624 57.189,176.035 57.723,173.877 57.967 C 171.720 58.212,169.560 58.670,169.077 58.985 C 168.595 59.301,167.418 59.684,166.462 59.837 C 165.507 59.989,164.427 60.431,164.062 60.818 C 163.698 61.205,162.592 61.738,161.604 62.002 C 160.616 62.267,159.356 62.799,158.804 63.186 C 158.252 63.573,157.131 64.011,156.313 64.160 C 155.495 64.309,154.591 64.666,154.305 64.953 C 154.018 65.239,153.337 65.710,152.792 65.998 C 152.246 66.286,151.350 66.869,150.800 67.293 C 150.250 67.717,148.810 68.670,147.600 69.410 C 143.632 71.839,142.770 72.547,137.858 77.412 C 132.702 82.518,131.944 83.370,130.730 85.430 C 130.308 86.144,129.701 86.829,129.382 86.952 C 129.062 87.074,128.800 87.424,128.800 87.729 C 128.800 88.034,128.342 88.777,127.782 89.382 C 127.222 89.986,126.661 90.993,126.536 91.620 C 126.411 92.246,125.969 93.066,125.554 93.442 C 125.139 93.817,124.800 94.341,124.800 94.606 C 124.800 94.871,124.325 95.788,123.744 96.644 C 123.164 97.499,122.508 98.739,122.288 99.400 C 122.067 100.060,121.627 100.900,121.311 101.268 C 120.994 101.635,120.521 103.165,120.261 104.668 C 120.000 106.170,119.494 107.850,119.136 108.400 C 118.778 108.950,118.363 110.435,118.214 111.700 C 118.064 112.965,117.789 114.000,117.602 114.000 C 117.089 114.000,116.464 116.289,116.184 119.200 C 116.047 120.630,115.634 122.790,115.267 124.000 C 114.353 127.013,114.229 272.020,115.137 275.400 C 115.433 276.500,115.907 279.162,116.190 281.316 C 116.483 283.541,116.964 285.528,117.304 285.916 C 117.633 286.292,118.100 287.751,118.341 289.158 C 118.583 290.564,119.035 292.004,119.347 292.358 C 119.659 292.711,120.041 293.952,120.196 295.115 C 120.352 296.278,120.911 298.043,121.440 299.036 C 121.968 300.029,122.400 301.089,122.400 301.390 C 122.400 301.692,122.825 302.447,123.345 303.069 C 123.865 303.691,124.426 304.650,124.591 305.200 C 124.757 305.750,125.211 306.560,125.600 307.000 C 125.989 307.440,126.444 308.250,126.610 308.800 C 126.776 309.350,127.257 310.250,127.678 310.800 C 128.400 311.744,129.265 312.925,131.883 316.544 C 133.227 318.402,142.257 327.600,142.737 327.600 C 142.924 327.600,143.418 327.978,143.837 328.441 C 144.256 328.903,145.139 329.558,145.799 329.895 C 146.460 330.232,147.144 330.754,147.320 331.054 C 147.496 331.354,147.876 331.600,148.165 331.600 C 148.454 331.600,149.339 332.095,150.133 332.700 C 152.618 334.595,155.072 336.000,155.898 336.000 C 156.335 336.000,157.128 336.343,157.660 336.761 C 158.193 337.180,159.425 337.738,160.400 338.000 C 161.375 338.262,162.601 338.815,163.127 339.228 C 163.652 339.641,164.738 340.094,165.541 340.234 C 166.343 340.375,167.398 340.739,167.884 341.043 C 168.370 341.348,170.080 341.796,171.684 342.040 C 173.288 342.284,175.737 342.839,177.127 343.275 C 178.528 343.714,181.738 344.217,184.327 344.403 C 186.897 344.589,190.073 345.023,191.384 345.370 C 194.680 346.241,206.252 346.255,209.036 345.391 C 210.116 345.056,213.340 344.613,216.200 344.407 C 219.406 344.176,222.244 343.736,223.600 343.262 C 224.810 342.838,226.880 342.364,228.200 342.209 C 229.520 342.053,231.410 341.603,232.400 341.209 C 233.390 340.814,234.946 340.289,235.859 340.042 C 236.771 339.795,237.612 339.346,237.728 339.044 C 237.844 338.742,238.866 338.272,240.000 338.000 C 241.134 337.728,242.157 337.256,242.274 336.950 C 242.391 336.645,243.183 336.284,244.033 336.148 C 244.883 336.012,246.158 335.473,246.867 334.951 C 247.576 334.428,248.384 334.000,248.664 334.000 C 248.944 334.000,249.725 333.460,250.400 332.800 C 251.075 332.140,251.891 331.600,252.214 331.600 C 252.536 331.600,252.800 331.424,252.800 331.208 C 252.800 330.993,253.475 330.472,254.300 330.051 C 255.125 329.630,256.143 328.906,256.562 328.443 C 256.981 327.979,257.570 327.600,257.871 327.600 C 258.171 327.600,258.622 327.150,258.873 326.600 C 259.123 326.050,259.500 325.600,259.709 325.600 C 260.155 325.600,267.200 318.625,267.200 318.184 C 267.200 318.019,267.571 317.505,268.024 317.042 C 269.504 315.528,271.546 312.799,271.803 311.991 C 271.941 311.556,272.191 311.200,272.359 311.200 C 272.526 311.200,273.085 310.300,273.600 309.200 C 274.115 308.100,274.672 307.200,274.837 307.200 C 275.002 307.200,275.256 306.656,275.402 305.990 C 275.548 305.325,276.075 304.290,276.573 303.690 C 277.071 303.091,277.610 302.060,277.770 301.400 C 277.931 300.740,278.308 299.928,278.607 299.595 C 278.907 299.262,279.362 298.092,279.618 296.995 C 279.874 295.898,280.415 294.100,280.819 293.000 C 281.224 291.900,281.676 290.100,281.825 289.000 C 281.973 287.900,282.432 286.440,282.846 285.755 C 283.336 284.943,283.743 283.094,284.015 280.437 C 284.245 278.197,284.621 275.877,284.850 275.282 C 285.368 273.940,286.201 260.855,285.856 259.483 C 285.405 257.686,284.399 257.600,263.720 257.600 C 239.946 257.600,241.628 257.129,241.595 263.800 C 241.572 268.542,240.921 274.413,240.237 276.050 C 239.906 276.842,239.458 278.592,239.241 279.939 C 238.717 283.189,236.720 287.376,233.695 291.562 C 232.638 293.025,228.438 297.200,228.024 297.200 C 227.823 297.200,227.304 297.650,226.871 298.200 C 226.439 298.750,225.947 299.200,225.777 299.200 C 225.608 299.200,224.644 299.722,223.635 300.360 C 222.626 300.997,221.170 301.649,220.400 301.808 C 219.630 301.966,218.494 302.355,217.875 302.671 C 217.257 302.987,215.367 303.491,213.675 303.790 C 211.984 304.090,210.060 304.618,209.400 304.965 C 207.498 305.964,193.945 305.879,191.315 304.852 C 190.262 304.441,188.143 303.888,186.607 303.624 C 185.072 303.360,183.621 302.984,183.385 302.787 C 183.148 302.591,181.974 302.175,180.777 301.863 C 178.502 301.270,176.455 300.158,174.218 298.300 C 173.490 297.695,172.757 297.200,172.589 297.200 C 172.278 297.200,171.804 296.779,169.000 294.008 C 167.203 292.232,165.979 290.587,163.641 286.800 C 162.647 285.190,161.205 281.570,160.774 279.600 C 160.509 278.390,160.040 276.901,159.732 276.292 C 157.729 272.334,157.764 127.032,159.768 123.879 C 160.075 123.395,160.529 121.920,160.776 120.600 C 161.024 119.280,161.700 117.210,162.278 116.000 C 164.325 111.721,165.888 109.434,168.500 106.892 C 169.105 106.303,169.600 105.592,169.600 105.311 C 169.600 105.030,169.839 104.800,170.130 104.800 C 170.422 104.800,171.083 104.350,171.600 103.800 C 172.117 103.250,172.738 102.800,172.981 102.800 C 173.223 102.800,174.013 102.260,174.736 101.600 C 175.458 100.940,176.281 100.400,176.563 100.400 C 176.846 100.400,177.479 100.052,177.969 99.627 C 178.460 99.201,179.790 98.654,180.925 98.410 C 182.061 98.167,183.379 97.713,183.854 97.401 C 184.329 97.090,186.143 96.657,187.884 96.438 C 189.626 96.220,191.939 95.723,193.025 95.333 C 195.695 94.376,205.864 94.363,208.013 95.313 C 208.790 95.657,210.949 96.147,212.811 96.402 C 214.673 96.656,216.377 97.010,216.598 97.188 C 216.819 97.365,218.080 97.843,219.400 98.249 C 220.720 98.655,222.410 99.396,223.156 99.894 C 223.902 100.392,224.724 100.800,224.984 100.800 C 225.243 100.800,225.847 101.250,226.325 101.800 C 226.803 102.350,227.374 102.800,227.594 102.800 C 228.013 102.800,232.481 107.213,233.720 108.849 C 236.175 112.093,238.773 117.558,239.241 120.461 C 239.458 121.808,239.906 123.558,240.237 124.350 C 240.950 126.058,241.575 131.940,241.590 137.084 C 241.607 143.245,240.071 142.876,265.089 142.720 C 288.890 142.572,286.305 143.726,285.705 133.521 C 285.468 129.495,285.098 125.747,284.883 125.193 C 284.667 124.640,284.283 122.210,284.029 119.793 C 283.711 116.767,283.342 115.087,282.842 114.395 C 282.442 113.841,281.985 112.311,281.826 110.995 C 281.666 109.678,281.301 108.233,281.014 107.784 C 280.726 107.335,280.270 105.895,279.999 104.584 C 279.728 103.273,279.078 101.391,278.553 100.403 C 278.029 99.415,277.600 98.394,277.600 98.134 C 277.600 97.874,277.162 97.140,276.626 96.504 C 276.090 95.867,275.533 94.871,275.387 94.290 C 275.241 93.708,274.878 93.031,274.581 92.784 C 274.284 92.538,273.837 91.719,273.588 90.965 C 273.340 90.211,272.790 89.409,272.368 89.183 C 271.946 88.957,271.600 88.548,271.600 88.275 C 271.600 87.842,269.798 85.232,267.989 83.045 C 267.501 82.455,264.417 79.099,262.526 77.101 C 261.984 76.528,258.476 73.426,256.400 71.683 C 255.630 71.037,254.550 70.368,254.000 70.197 C 253.450 70.025,252.765 69.551,252.477 69.143 C 252.190 68.734,251.740 68.393,251.477 68.384 C 251.215 68.375,250.377 67.835,249.615 67.184 C 248.853 66.533,248.096 66.000,247.933 66.000 C 247.769 66.000,246.972 65.550,246.162 65.000 C 245.351 64.450,244.271 64.000,243.762 64.000 C 243.252 64.000,242.172 63.550,241.362 63.000 C 240.551 62.450,239.561 62.000,239.162 62.000 C 238.762 62.000,237.804 61.571,237.031 61.047 C 236.259 60.523,234.965 59.970,234.155 59.818 C 233.345 59.666,232.298 59.289,231.827 58.981 C 231.356 58.672,229.177 58.214,226.985 57.962 C 224.793 57.711,222.167 57.171,221.149 56.763 C 219.931 56.274,217.745 55.936,214.749 55.773 C 212.247 55.637,208.166 55.273,205.680 54.963 C 200.830 54.359,200.180 54.348,196.800 54.819 M214.421 56.412 C 216.523 56.612,218.885 57.043,219.669 57.371 C 220.454 57.699,222.334 58.078,223.848 58.214 C 226.583 58.460,234.088 60.439,236.000 61.419 C 237.990 62.439,242.222 64.311,243.200 64.603 C 244.790 65.079,251.028 68.857,252.434 70.196 C 252.782 70.528,253.187 70.800,253.333 70.800 C 255.564 70.800,268.449 84.042,271.819 89.800 C 272.463 90.900,273.213 92.160,273.486 92.600 C 273.758 93.040,274.426 94.328,274.969 95.463 C 275.513 96.598,276.134 97.636,276.350 97.769 C 276.565 97.902,276.957 98.684,277.221 99.506 C 277.485 100.328,278.022 101.720,278.414 102.600 C 278.806 103.480,279.258 104.920,279.417 105.800 C 279.577 106.680,279.954 107.888,280.256 108.484 C 280.558 109.081,281.063 110.791,281.378 112.284 C 281.694 113.778,282.226 115.654,282.561 116.453 C 283.232 118.050,284.800 133.285,284.800 138.201 C 284.800 142.256,286.223 142.000,263.650 142.000 C 241.444 142.000,243.235 142.363,242.780 137.766 C 241.847 128.333,241.144 123.142,240.586 121.565 C 240.243 120.594,239.780 118.990,239.559 118.000 C 239.337 117.010,238.861 115.750,238.500 115.200 C 238.139 114.650,237.311 113.169,236.660 111.908 C 236.008 110.648,235.188 109.298,234.838 108.908 C 234.487 108.518,233.707 107.539,233.105 106.733 C 232.162 105.471,226.338 100.400,225.831 100.400 C 225.733 100.400,224.786 99.873,223.727 99.229 C 221.148 97.663,213.711 95.398,207.600 94.319 C 204.340 93.743,192.589 94.158,190.533 94.922 C 189.617 95.262,187.997 95.663,186.933 95.813 C 179.031 96.923,168.908 103.448,164.611 110.200 C 160.731 116.296,159.015 121.181,158.295 128.181 C 157.599 134.954,157.582 265.281,158.276 272.021 C 158.785 276.955,160.706 283.843,162.050 285.554 C 162.463 286.079,162.800 286.660,162.800 286.846 C 162.800 288.379,168.522 295.171,171.988 297.752 C 177.370 301.761,179.043 302.570,185.000 304.045 C 186.760 304.481,189.010 305.129,190.000 305.485 C 192.987 306.560,208.574 306.427,211.800 305.298 C 213.120 304.837,214.830 304.343,215.600 304.200 C 218.147 303.730,223.952 301.516,224.644 300.752 C 225.018 300.338,225.488 300.000,225.689 300.000 C 225.890 300.000,226.717 299.463,227.527 298.808 C 228.337 298.152,229.791 296.974,230.759 296.190 C 232.643 294.663,235.074 291.443,236.796 288.194 C 237.380 287.091,238.139 285.741,238.483 285.194 C 239.507 283.564,241.233 276.857,241.620 273.000 C 241.819 271.020,242.074 268.860,242.187 268.200 C 242.300 267.540,242.565 265.320,242.775 263.266 C 242.986 261.212,243.370 259.277,243.628 258.966 C 244.218 258.256,282.713 258.111,284.026 258.814 C 285.415 259.557,284.186 278.869,282.410 284.200 C 281.971 285.520,281.353 287.590,281.037 288.800 C 279.034 296.479,277.527 300.576,275.277 304.459 C 274.685 305.481,273.701 307.191,273.090 308.259 C 270.832 312.210,270.250 313.069,267.705 316.200 C 262.855 322.168,256.630 327.820,251.389 331.013 C 250.655 331.461,249.727 332.108,249.327 332.452 C 248.927 332.796,247.160 333.753,245.400 334.580 C 243.640 335.407,241.570 336.404,240.800 336.796 C 240.030 337.187,238.950 337.645,238.400 337.812 C 237.850 337.979,236.963 338.404,236.429 338.758 C 235.316 339.493,231.562 340.587,227.200 341.445 C 225.550 341.770,222.850 342.387,221.200 342.817 C 212.660 345.040,186.692 345.167,180.295 343.017 C 179.363 342.704,177.340 342.250,175.800 342.009 C 172.357 341.471,166.353 339.814,164.200 338.809 C 163.320 338.398,161.520 337.582,160.200 336.996 C 150.717 332.784,145.358 329.204,138.655 322.600 C 132.563 316.598,128.618 311.304,125.243 304.600 C 124.800 303.720,124.170 302.550,123.844 302.000 C 122.762 300.179,121.170 296.252,120.768 294.413 C 120.550 293.416,120.035 291.700,119.624 290.600 C 115.388 279.264,115.400 279.530,115.400 200.400 C 115.400 125.769,115.481 122.958,117.851 115.688 C 118.373 114.086,118.800 112.415,118.800 111.975 C 118.800 111.535,119.093 110.505,119.451 109.687 C 119.809 108.869,120.424 107.120,120.818 105.800 C 121.892 102.198,123.338 98.560,124.023 97.734 C 124.358 97.330,124.984 96.295,125.416 95.433 C 127.056 92.158,127.652 91.141,129.509 88.454 C 136.586 78.212,149.875 67.077,158.200 64.411 C 159.080 64.129,160.070 63.674,160.400 63.400 C 160.730 63.126,161.720 62.676,162.600 62.400 C 163.480 62.124,164.470 61.675,164.800 61.400 C 165.130 61.126,166.390 60.676,167.600 60.400 C 168.810 60.124,170.404 59.653,171.141 59.352 C 171.879 59.052,174.129 58.607,176.141 58.364 C 178.154 58.121,180.378 57.681,181.085 57.388 C 184.895 55.804,202.581 55.286,214.421 56.412 " stroke="none" fill="#68649d" fill-rule="evenodd"></path><path id="path4" d="M188.590 56.415 C 186.058 56.586,183.015 57.072,181.447 57.556 C 179.945 58.020,178.054 58.400,177.245 58.400 C 176.436 58.400,174.790 58.670,173.587 59.001 C 172.384 59.331,170.320 59.876,169.000 60.211 C 167.680 60.546,165.880 61.164,165.000 61.585 C 164.120 62.006,162.590 62.703,161.600 63.135 C 148.737 68.749,140.827 74.621,132.688 84.600 C 129.600 88.386,127.277 92.029,125.258 96.256 C 124.822 97.167,124.285 98.024,124.064 98.161 C 123.842 98.297,123.354 99.352,122.978 100.505 C 122.602 101.657,122.154 102.780,121.983 103.000 C 121.812 103.220,121.369 104.570,121.000 106.000 C 120.631 107.430,120.171 108.791,119.978 109.024 C 119.786 109.257,119.260 111.028,118.810 112.959 C 118.359 114.889,117.817 116.794,117.604 117.192 C 115.985 120.218,115.800 128.738,115.800 200.400 C 115.800 281.254,115.649 277.746,119.643 289.800 C 120.080 291.120,120.680 293.100,120.975 294.200 C 121.458 295.996,122.673 299.237,123.675 301.400 C 124.137 302.396,125.764 305.254,127.598 308.287 C 128.366 309.559,129.086 310.814,129.198 311.076 C 130.402 313.907,140.926 325.215,144.722 327.755 C 145.889 328.536,147.329 329.550,147.922 330.009 C 150.349 331.886,153.791 333.817,158.800 336.111 C 160.010 336.665,162.013 337.589,163.252 338.165 C 166.036 339.459,170.165 340.624,175.400 341.591 C 177.600 341.998,179.940 342.545,180.600 342.808 C 185.688 344.832,214.822 344.734,220.608 342.673 C 221.493 342.358,223.203 341.975,224.408 341.821 C 227.549 341.421,233.861 339.693,236.200 338.593 C 237.300 338.076,239.460 337.090,241.000 336.402 C 250.028 332.371,255.265 328.728,263.753 320.571 C 263.999 320.335,264.740 319.456,265.400 318.617 C 266.060 317.779,267.500 315.964,268.600 314.585 C 269.700 313.205,271.140 311.146,271.800 310.008 C 272.460 308.870,273.492 307.188,274.093 306.270 C 274.694 305.351,275.189 304.344,275.193 304.031 C 275.197 303.719,275.515 303.115,275.899 302.691 C 276.568 301.952,277.559 299.402,279.201 294.200 C 279.618 292.880,280.230 291.080,280.562 290.200 C 280.893 289.320,281.173 288.218,281.182 287.751 C 281.192 287.284,281.630 285.574,282.156 283.951 C 283.173 280.812,284.403 269.054,284.401 262.490 C 284.400 258.095,285.965 258.400,263.383 258.400 L 244.418 258.400 243.853 259.300 C 243.542 259.795,243.189 261.460,243.067 263.000 C 242.247 273.433,240.391 282.085,238.006 286.600 C 234.460 293.314,232.367 295.640,225.441 300.567 C 223.471 301.968,219.076 303.721,215.862 304.387 C 214.576 304.654,212.866 305.160,212.062 305.510 C 210.268 306.293,194.995 306.720,191.800 306.077 C 188.853 305.483,182.526 303.750,179.966 302.834 C 173.556 300.541,164.525 292.189,162.393 286.582 C 162.204 286.084,161.865 285.564,161.640 285.425 C 160.965 285.008,158.401 276.546,158.392 274.707 C 158.388 273.768,158.124 271.200,157.805 269.000 C 157.119 264.267,156.917 137.493,157.587 132.800 C 157.792 131.370,158.149 128.400,158.380 126.200 C 158.792 122.296,160.338 116.881,161.636 114.800 C 161.980 114.250,162.950 112.646,163.794 111.236 C 164.638 109.826,165.614 108.369,165.964 107.998 C 166.314 107.627,167.354 106.514,168.276 105.525 C 169.841 103.846,172.461 101.800,176.165 99.365 C 178.145 98.063,182.467 96.498,186.597 95.586 C 188.359 95.197,190.610 94.661,191.600 94.395 C 194.793 93.538,207.691 93.767,210.800 94.737 C 212.230 95.183,214.120 95.661,215.000 95.799 C 217.467 96.186,222.267 97.978,224.603 99.385 C 226.999 100.828,233.200 105.854,233.200 106.353 C 233.200 106.535,233.665 107.185,234.233 107.797 C 234.801 108.410,235.895 110.102,236.665 111.556 C 237.435 113.010,238.297 114.470,238.580 114.800 C 240.040 116.500,242.437 128.702,243.082 137.714 C 243.264 140.269,243.455 140.933,244.141 141.414 C 245.208 142.161,281.030 142.296,283.140 141.561 L 284.400 141.122 284.401 137.861 C 284.403 131.182,283.207 119.565,282.177 116.275 C 281.640 114.557,281.202 112.847,281.204 112.475 C 281.210 111.371,277.250 99.811,276.314 98.200 C 276.058 97.760,275.428 96.590,274.914 95.600 C 274.400 94.610,273.446 92.990,272.796 92.000 C 272.145 91.010,271.391 89.750,271.119 89.200 C 270.701 88.353,268.216 85.132,265.000 81.270 C 264.560 80.742,263.042 79.205,261.627 77.855 C 260.211 76.505,258.681 75.026,258.227 74.569 C 256.524 72.859,243.997 64.806,243.032 64.802 C 242.663 64.800,238.457 62.914,236.200 61.738 C 234.290 60.743,226.877 58.776,223.600 58.396 C 221.950 58.204,219.790 57.756,218.800 57.401 C 215.400 56.181,199.673 55.668,188.590 56.415 M216.810 57.677 C 217.586 58.039,219.836 58.518,221.810 58.741 C 223.785 58.964,226.030 59.411,226.800 59.735 C 227.570 60.059,229.370 60.552,230.800 60.830 C 232.230 61.109,234.192 61.756,235.160 62.268 C 236.127 62.781,237.244 63.200,237.642 63.200 C 238.039 63.200,239.028 63.650,239.838 64.200 C 240.649 64.750,241.612 65.200,241.979 65.200 C 242.347 65.200,242.996 65.470,243.424 65.800 C 243.851 66.130,244.920 66.772,245.800 67.225 C 249.303 69.031,250.818 69.948,252.446 71.245 C 253.381 71.990,254.728 72.960,255.440 73.400 C 257.085 74.417,263.469 80.517,264.843 82.383 C 265.416 83.162,266.535 84.520,267.329 85.400 C 269.833 88.176,269.968 88.353,270.599 89.691 C 271.374 91.334,272.834 93.720,273.648 94.673 C 273.989 95.073,274.515 96.030,274.815 96.800 C 275.116 97.570,275.576 98.380,275.837 98.600 C 276.098 98.820,276.434 99.720,276.584 100.600 C 276.734 101.480,277.294 103.134,277.828 104.275 C 278.363 105.417,278.800 106.684,278.800 107.091 C 278.800 107.498,279.152 108.522,279.583 109.367 C 280.014 110.212,280.475 111.735,280.607 112.752 C 280.740 113.768,281.275 116.040,281.797 117.800 C 283.003 121.872,284.066 140.256,283.129 140.854 C 282.838 141.040,273.960 141.149,263.400 141.096 L 244.200 141.000 243.956 136.994 C 243.822 134.790,243.423 131.640,243.070 129.994 C 242.716 128.347,242.231 125.404,241.992 123.453 C 241.753 121.502,241.310 119.522,241.008 119.053 C 240.706 118.584,240.333 117.510,240.179 116.666 C 240.024 115.822,239.482 114.682,238.974 114.134 C 238.466 113.586,237.938 112.630,237.802 112.010 C 237.666 111.390,237.205 110.566,236.777 110.179 C 236.350 109.793,236.000 109.326,236.000 109.142 C 236.000 108.406,232.378 104.125,230.803 103.000 C 229.879 102.340,228.532 101.305,227.809 100.700 C 227.086 100.095,226.321 99.600,226.109 99.600 C 225.897 99.600,225.413 99.256,225.033 98.837 C 224.653 98.417,223.770 97.853,223.071 97.584 C 222.372 97.315,221.080 96.771,220.200 96.375 C 219.320 95.979,217.700 95.539,216.600 95.398 C 215.500 95.257,213.700 94.751,212.600 94.273 C 209.792 93.056,191.641 92.946,189.000 94.130 C 188.120 94.525,185.992 95.095,184.272 95.397 C 182.551 95.698,180.713 96.227,180.186 96.573 C 179.659 96.918,178.991 97.200,178.701 97.200 C 178.217 97.200,175.941 98.532,172.415 100.878 C 170.574 102.104,164.603 108.107,163.843 109.498 C 163.511 110.104,162.920 111.230,162.529 112.000 C 162.138 112.770,161.409 113.909,160.909 114.531 C 160.409 115.153,160.000 115.965,160.000 116.337 C 160.000 116.708,159.650 117.664,159.223 118.462 C 158.723 119.395,158.283 121.462,157.990 124.256 C 157.739 126.645,157.279 129.397,156.967 130.371 C 156.115 133.034,156.118 266.981,156.970 269.629 C 157.284 270.603,157.731 273.290,157.963 275.600 C 158.242 278.371,158.725 280.616,159.383 282.200 C 159.932 283.520,160.385 284.816,160.391 285.080 C 160.396 285.344,160.645 285.704,160.945 285.880 C 161.244 286.056,161.864 287.055,162.322 288.100 C 162.780 289.145,163.345 290.000,163.578 290.000 C 163.810 290.000,164.000 290.261,164.000 290.579 C 164.000 291.464,167.629 295.629,169.769 297.202 C 170.816 297.971,172.049 299.005,172.508 299.500 C 172.968 299.995,173.557 300.400,173.817 300.400 C 174.077 300.400,174.969 300.940,175.800 301.600 C 176.631 302.260,177.579 302.800,177.908 302.800 C 178.237 302.800,179.067 303.145,179.753 303.567 C 180.439 303.989,182.162 304.544,183.583 304.800 C 185.004 305.056,186.713 305.548,187.382 305.894 C 190.073 307.286,211.154 307.272,213.853 305.876 C 214.493 305.545,216.076 305.079,217.372 304.839 C 218.668 304.599,220.307 304.062,221.015 303.644 C 221.722 303.227,222.865 302.761,223.554 302.610 C 224.243 302.459,224.985 302.002,225.203 301.595 C 225.421 301.187,226.004 300.727,226.500 300.572 C 228.656 299.897,236.000 292.804,236.000 291.396 C 236.000 291.137,236.353 290.604,236.785 290.214 C 237.217 289.823,237.779 288.850,238.034 288.052 C 238.290 287.253,238.811 286.240,239.193 285.800 C 239.575 285.360,240.080 284.280,240.315 283.400 C 240.550 282.520,241.033 281.011,241.388 280.046 C 241.743 279.081,242.143 276.831,242.277 275.046 C 242.411 273.261,242.774 271.080,243.084 270.200 C 243.393 269.320,243.750 266.710,243.877 264.400 C 244.224 258.113,241.816 258.799,263.514 258.806 C 273.791 258.809,282.398 258.944,282.640 259.106 C 283.861 259.921,283.363 277.075,281.994 281.400 C 281.576 282.720,281.040 285.030,280.804 286.534 C 280.567 288.038,280.117 289.660,279.803 290.139 C 279.489 290.618,279.025 291.977,278.772 293.158 C 278.518 294.338,277.988 295.866,277.594 296.552 C 277.199 297.239,276.755 298.555,276.607 299.477 C 276.459 300.399,276.091 301.359,275.789 301.609 C 275.488 301.859,275.027 302.725,274.766 303.532 C 274.505 304.339,274.036 305.270,273.724 305.600 C 272.907 306.463,270.400 310.503,270.400 310.955 C 270.400 311.166,269.539 312.342,268.487 313.569 C 265.623 316.910,264.000 319.066,264.000 319.531 C 264.000 319.759,263.685 320.047,263.300 320.171 C 262.915 320.294,261.352 321.669,259.828 323.225 C 258.303 324.781,256.503 326.336,255.828 326.679 C 255.152 327.023,254.330 327.538,254.000 327.824 C 253.670 328.110,252.928 328.762,252.350 329.272 C 251.192 330.296,249.643 331.235,246.556 332.784 C 245.432 333.348,244.262 334.009,243.956 334.253 C 243.650 334.496,242.739 334.908,241.932 335.168 C 241.125 335.428,240.257 335.890,240.004 336.195 C 239.752 336.499,238.972 336.868,238.272 337.013 C 237.573 337.159,236.420 337.611,235.710 338.019 C 235.001 338.427,233.369 338.952,232.085 339.185 C 230.800 339.418,228.770 339.950,227.574 340.367 C 226.379 340.785,224.320 341.251,223.000 341.403 C 221.680 341.555,219.340 342.066,217.800 342.539 C 213.535 343.850,186.326 343.830,182.600 342.513 C 181.280 342.046,179.120 341.543,177.800 341.394 C 176.480 341.245,174.410 340.790,173.200 340.382 C 171.990 339.974,169.840 339.437,168.423 339.189 C 167.006 338.940,165.425 338.406,164.911 338.002 C 164.397 337.597,163.263 337.146,162.390 336.998 C 161.518 336.851,160.700 336.561,160.572 336.355 C 160.309 335.929,153.923 332.800,153.317 332.800 C 153.101 332.800,152.613 332.456,152.233 332.037 C 151.853 331.617,150.992 331.045,150.319 330.767 C 149.647 330.488,148.693 329.887,148.200 329.430 C 146.433 327.794,145.125 326.800,144.741 326.800 C 144.165 326.800,136.391 319.280,135.032 317.409 C 134.390 316.524,133.024 314.810,131.997 313.600 C 130.970 312.390,129.897 310.811,129.612 310.091 C 129.328 309.370,128.868 308.650,128.591 308.491 C 128.313 308.331,127.785 307.570,127.417 306.800 C 126.490 304.862,124.940 302.054,124.480 301.479 C 124.269 301.215,123.792 299.940,123.421 298.644 C 123.049 297.348,122.505 295.908,122.212 295.444 C 121.919 294.980,121.560 293.970,121.414 293.200 C 121.070 291.376,120.379 289.600,120.014 289.600 C 119.855 289.600,119.519 288.148,119.268 286.373 C 119.017 284.598,118.551 282.573,118.232 281.873 C 116.062 277.110,116.069 122.521,118.239 118.324 C 118.547 117.729,119.002 115.838,119.250 114.121 C 119.499 112.405,119.935 110.730,120.221 110.400 C 120.506 110.070,120.960 108.900,121.229 107.800 C 121.498 106.700,122.033 105.169,122.417 104.398 C 122.802 103.627,123.333 102.187,123.597 101.198 C 123.862 100.209,124.255 99.185,124.470 98.921 C 124.926 98.365,126.450 95.617,127.419 93.603 C 127.789 92.835,128.521 91.696,129.046 91.073 C 129.571 90.449,130.000 89.710,130.000 89.431 C 130.000 89.152,130.360 88.598,130.800 88.200 C 131.240 87.802,131.600 87.327,131.600 87.145 C 131.600 86.963,132.426 85.956,133.436 84.907 C 134.445 83.858,135.525 82.514,135.836 81.920 C 136.146 81.326,136.651 80.696,136.959 80.520 C 137.266 80.344,138.912 78.881,140.616 77.269 C 142.320 75.657,144.409 73.899,145.257 73.364 C 146.106 72.828,146.800 72.252,146.800 72.083 C 146.800 71.914,147.295 71.558,147.900 71.291 C 149.046 70.787,151.322 69.277,152.461 68.266 C 152.824 67.943,153.544 67.547,154.061 67.385 C 154.577 67.223,155.918 66.604,157.039 66.008 C 158.160 65.413,159.420 64.812,159.839 64.674 C 160.258 64.536,160.870 64.245,161.200 64.026 C 162.461 63.193,167.116 61.520,169.800 60.936 C 171.340 60.600,173.204 60.074,173.941 59.766 C 174.679 59.458,176.918 59.007,178.917 58.764 C 180.916 58.521,183.013 58.135,183.576 57.906 C 185.839 56.986,187.954 56.872,201.400 56.943 C 213.459 57.007,215.595 57.109,216.810 57.677 " stroke="none" fill="#4c4c74" fill-rule="evenodd"></path></g></svg>